<svg xmlns="http://www.w3.org/2000/svg" xmlns:xlink="http://www.w3.org/1999/xlink" width="500" zoomAndPan="magnify" viewBox="0 0 375 374.999991" height="500" preserveAspectRatio="xMidYMid meet" version="1.0"><defs><g/><clipPath id="a39e9b1f05"><path d="M 0 108.140625 L 107.796875 108.140625 L 107.796875 216 L 0 216 Z M 0 108.140625 " clip-rule="nonzero"/></clipPath><clipPath id="ed4fbd92e5"><path d="M 53.832031 216.023438 C 39.460938 216.023438 25.925781 210.429688 15.769531 200.25 C 5.59375 190.09375 0 176.5625 0 162.1875 C 0 147.816406 5.59375 134.28125 15.769531 124.125 C 25.925781 113.949219 39.460938 108.355469 53.832031 108.355469 C 68.207031 108.355469 81.742188 113.949219 91.894531 124.125 C 102.074219 134.304688 107.667969 147.816406 107.667969 162.1875 C 107.667969 176.5625 102.074219 190.09375 91.894531 200.25 C 81.742188 210.429688 68.207031 216.023438 53.832031 216.023438 Z M 53.832031 111.582031 C 40.320312 111.582031 27.605469 116.855469 18.050781 126.40625 C 8.5 135.960938 3.226562 148.675781 3.226562 162.1875 C 3.226562 175.699219 8.5 188.417969 18.050781 197.96875 C 27.605469 207.523438 40.320312 212.792969 53.832031 212.792969 C 67.347656 212.792969 80.0625 207.523438 89.617188 197.96875 C 99.167969 188.417969 104.441406 175.699219 104.441406 162.1875 C 104.441406 148.675781 99.167969 135.960938 89.617188 126.40625 C 80.0625 116.855469 67.347656 111.582031 53.832031 111.582031 Z M 53.832031 111.582031 " clip-rule="nonzero"/></clipPath></defs><rect x="-37.5" width="450" fill="#ffffff" y="-37.499999" height="449.999989" fill-opacity="1"/><rect x="-37.5" width="450" fill="#ffffff" y="-37.499999" height="449.999989" fill-opacity="1"/><rect x="-37.5" width="450" fill="#ffffff" y="-37.499999" height="449.999989" fill-opacity="1"/><g clip-path="url(#a39e9b1f05)"><g clip-path="url(#ed4fbd92e5)"><path fill="#000000" d="M 0 108.355469 L 107.582031 108.355469 L 107.582031 215.9375 L 0 215.9375 Z M 0 108.355469 " fill-opacity="1" fill-rule="nonzero"/></g></g><g fill="#000000" fill-opacity="1"><g transform="translate(17.570178, 176.618977)"><g><path d="M 78.671875 14.109375 C 76.347656 14.710938 74.285156 15.015625 72.484375 15.015625 C 70.691406 15.015625 69.101562 14.90625 67.71875 14.6875 C 66.332031 14.46875 64.847656 14.039062 63.265625 13.40625 C 61.691406 12.769531 60.210938 12.035156 58.828125 11.203125 C 57.453125 10.367188 56.070312 9.34375 54.6875 8.125 C 52.144531 6.082031 49.832031 3.867188 47.75 1.484375 C 45.675781 -0.890625 41.679688 -5.351562 35.765625 -11.90625 C 29.847656 -18.457031 25.921875 -22.8125 23.984375 -24.96875 C 22.046875 -27.132812 20.550781 -28.269531 19.5 -28.375 L 19.5 -29.203125 C 22.707031 -29.203125 24.847656 -29.269531 25.921875 -29.40625 C 27.003906 -29.550781 28.15625 -29.800781 29.375 -30.15625 C 30.59375 -30.519531 31.617188 -31.003906 32.453125 -31.609375 C 35.710938 -33.710938 37.34375 -37.203125 37.34375 -42.078125 C 37.34375 -46.109375 36.441406 -49.34375 34.640625 -51.78125 C 32.847656 -54.21875 30.316406 -55.460938 27.046875 -55.515625 L 16.765625 -55.515625 L 16.765625 -6.0625 C 16.765625 -4.675781 17.273438 -3.457031 18.296875 -2.40625 C 19.316406 -1.351562 20.578125 -0.828125 22.078125 -0.828125 L 23.0625 -0.828125 L 23.15625 0 L 4.984375 0 L 4.984375 -0.828125 L 6.0625 -0.828125 C 7.4375 -0.828125 8.648438 -1.320312 9.703125 -2.3125 C 10.753906 -3.3125 11.3125 -4.53125 11.375 -5.96875 L 11.375 -52.03125 C 11.3125 -53.46875 10.769531 -54.695312 9.75 -55.71875 C 8.726562 -56.75 7.5 -57.265625 6.0625 -57.265625 L 4.984375 -57.265625 L 4.984375 -58.09375 L 27.390625 -58.09375 C 32.253906 -58.09375 36.164062 -56.722656 39.125 -53.984375 C 42.082031 -51.242188 43.5625 -47.617188 43.5625 -43.109375 C 43.5625 -38.597656 42.207031 -34.722656 39.5 -31.484375 C 36.789062 -28.253906 33.472656 -26.640625 29.546875 -26.640625 C 29.546875 -26.640625 29.515625 -26.640625 29.453125 -26.640625 C 31.335938 -24.648438 33.46875 -22.328125 35.84375 -19.671875 C 45.414062 -9.097656 51.554688 -2.457031 54.265625 0.25 C 56.984375 2.957031 59.378906 5.179688 61.453125 6.921875 C 63.523438 8.671875 65.363281 9.957031 66.96875 10.78125 C 70.226562 12.550781 73.460938 13.4375 76.671875 13.4375 C 77.335938 13.4375 78.003906 13.382812 78.671875 13.28125 Z M 78.671875 14.109375 "/></g></g></g><g fill="#000000" fill-opacity="1"><g transform="translate(116.866652, 168.370559)"><g><path d="M 73.0625 11.453125 C 69.5625 13.203125 65.835938 14.078125 61.890625 14.078125 C 58.390625 14.078125 55.203125 13.535156 52.328125 12.453125 C 46.128906 10.171875 40.851562 5.707031 36.5 -0.9375 C 35.375 -2.550781 33.285156 -5.648438 30.234375 -10.234375 C 27.179688 -14.816406 25.207031 -17.734375 24.3125 -18.984375 C 22.738281 -21.453125 21.484375 -22.800781 20.546875 -23.03125 L 20.546875 -23.703125 C 20.585938 -23.703125 20.640625 -23.703125 20.703125 -23.703125 C 20.773438 -23.703125 20.851562 -23.703125 20.9375 -23.703125 C 21.03125 -23.703125 21.117188 -23.703125 21.203125 -23.703125 C 21.296875 -23.703125 21.410156 -23.703125 21.546875 -23.703125 C 21.679688 -23.703125 21.796875 -23.703125 21.890625 -23.703125 C 24.179688 -23.703125 26.289062 -24.21875 28.21875 -25.25 C 31.132812 -26.863281 32.59375 -29.847656 32.59375 -34.203125 C 32.59375 -37.390625 31.691406 -39.847656 29.890625 -41.578125 C 28.097656 -43.304688 25.945312 -44.171875 23.4375 -44.171875 L 18.3125 -44.171875 L 18.3125 -4.921875 C 18.3125 -3.753906 18.738281 -2.753906 19.59375 -1.921875 C 20.445312 -1.085938 21.457031 -0.671875 22.625 -0.671875 L 23.5 -0.671875 L 23.5 0 L 3.03125 0 L 3.03125 -0.671875 L 3.90625 -0.671875 C 5.03125 -0.671875 6.019531 -1.070312 6.875 -1.875 C 7.726562 -2.6875 8.175781 -3.675781 8.21875 -4.84375 L 8.21875 -42.21875 C 8.175781 -43.382812 7.738281 -44.382812 6.90625 -45.21875 C 6.070312 -46.050781 5.070312 -46.46875 3.90625 -46.46875 L 3.03125 -46.46875 L 3.03125 -47.140625 L 26.125 -47.140625 C 31.914062 -47.140625 36.40625 -45.816406 39.59375 -43.171875 C 42.113281 -41.097656 43.375 -38.175781 43.375 -34.40625 C 43.375 -30.632812 42.148438 -27.570312 39.703125 -25.21875 C 37.253906 -22.863281 34.457031 -21.6875 31.3125 -21.6875 C 31.039062 -21.6875 30.75 -21.707031 30.4375 -21.75 C 32.28125 -20.757812 33.816406 -19.660156 35.046875 -18.453125 C 36.285156 -17.242188 37.363281 -16.097656 38.28125 -15.015625 C 39.207031 -13.941406 39.992188 -12.988281 40.640625 -12.15625 C 41.296875 -11.320312 42.160156 -10.21875 43.234375 -8.84375 C 44.304688 -7.476562 45.425781 -6.054688 46.59375 -4.578125 C 47.769531 -3.097656 49.0625 -1.582031 50.46875 -0.03125 C 51.882812 1.519531 53.457031 2.988281 55.1875 4.375 C 56.914062 5.769531 58.675781 6.914062 60.46875 7.8125 C 64.289062 9.738281 68.488281 10.726562 73.0625 10.78125 Z M 73.0625 11.453125 "/></g></g></g><g fill="#000000" fill-opacity="1"><g transform="translate(166.089233, 168.370559)"><g><path d="M 65.046875 12.328125 C 60.148438 14.796875 55.191406 15.195312 50.171875 13.53125 C 44.828125 11.832031 40.222656 8.195312 36.359375 2.625 C 34.296875 -0.332031 32.523438 -3.765625 31.046875 -7.671875 L 28.890625 -13.40625 L 13 -13.40625 L 9.421875 -4.921875 C 9.203125 -4.335938 9.09375 -3.863281 9.09375 -3.5 C 9.09375 -3.144531 9.171875 -2.753906 9.328125 -2.328125 C 9.484375 -1.898438 9.816406 -1.515625 10.328125 -1.171875 C 10.847656 -0.835938 11.421875 -0.671875 12.046875 -0.671875 L 12.59375 -0.671875 L 12.59375 0 L -1.828125 0 L -1.828125 -0.671875 L -1.21875 -0.671875 C -0.1875 -0.671875 0.832031 -0.972656 1.84375 -1.578125 C 2.851562 -2.179688 3.695312 -3.09375 4.375 -4.3125 L 19.390625 -38.59375 C 17.640625 -42.539062 15.773438 -45.253906 13.796875 -46.734375 C 12.140625 -47.992188 10.554688 -48.625 9.046875 -48.625 C 7.546875 -48.625 6.144531 -48.398438 4.84375 -47.953125 L 4.703125 -48.625 C 7.941406 -50.28125 11.039062 -51.109375 14 -51.109375 C 17.6875 -51.109375 20.988281 -49.671875 23.90625 -46.796875 C 26.78125 -43.972656 29.316406 -39.890625 31.515625 -34.546875 L 41.28125 -10.4375 C 44.957031 -1.320312 48.726562 4.9375 52.59375 8.34375 C 54.164062 9.738281 55.78125 10.703125 57.4375 11.234375 C 59.101562 11.773438 60.503906 12.046875 61.640625 12.046875 C 62.785156 12.046875 63.898438 11.914062 64.984375 11.65625 Z M 14.140625 -16.296875 L 27.875 -16.296875 L 23.15625 -28.75 C 22.9375 -29.382812 22.625 -30.25 22.21875 -31.34375 C 21.8125 -32.445312 21.539062 -33.222656 21.40625 -33.671875 Z M 14.140625 -16.296875 "/></g></g></g><g fill="#000000" fill-opacity="1"><g transform="translate(213.561085, 168.370559)"><g><path d="M 18.109375 -21.8125 L 18.109375 -4.921875 C 18.109375 -3.753906 18.535156 -2.753906 19.390625 -1.921875 C 20.242188 -1.085938 21.253906 -0.671875 22.421875 -0.671875 L 23.234375 -0.671875 L 23.296875 0 L 2.828125 0 L 2.828125 -0.671875 L 3.703125 -0.671875 C 4.867188 -0.671875 5.867188 -1.085938 6.703125 -1.921875 C 7.535156 -2.753906 7.972656 -3.753906 8.015625 -4.921875 L 8.015625 -42.421875 C 7.921875 -43.546875 7.457031 -44.5 6.625 -45.28125 C 5.800781 -46.070312 4.828125 -46.46875 3.703125 -46.46875 L 2.828125 -46.46875 L 2.828125 -47.140625 L 28.625 -47.140625 C 30.59375 -47.140625 32.316406 -47.296875 33.796875 -47.609375 C 35.285156 -47.921875 36.253906 -48.171875 36.703125 -48.359375 L 36.703125 -36.96875 L 36.03125 -36.96875 L 36.03125 -37.640625 C 36.03125 -40.335938 35.019531 -42.25 33 -43.375 C 32.050781 -43.90625 30.925781 -44.195312 29.625 -44.25 L 18.109375 -44.25 L 18.109375 -24.640625 L 37.515625 -24.640625 C 39.171875 -24.691406 40.535156 -25.265625 41.609375 -26.359375 C 42.691406 -27.460938 43.234375 -28.820312 43.234375 -30.4375 L 43.234375 -31.046875 L 43.90625 -31.046875 L 43.90625 -15.484375 L 43.234375 -15.484375 L 43.234375 -16.03125 C 43.234375 -17.6875 42.703125 -19.050781 41.640625 -20.125 C 40.585938 -21.207031 39.253906 -21.769531 37.640625 -21.8125 Z M 18.109375 -21.8125 "/></g></g></g><g fill="#000000" fill-opacity="1"><g transform="translate(257.800806, 168.370559)"><g><path d="M 65.046875 12.328125 C 60.148438 14.796875 55.191406 15.195312 50.171875 13.53125 C 44.828125 11.832031 40.222656 8.195312 36.359375 2.625 C 34.296875 -0.332031 32.523438 -3.765625 31.046875 -7.671875 L 28.890625 -13.40625 L 13 -13.40625 L 9.421875 -4.921875 C 9.203125 -4.335938 9.09375 -3.863281 9.09375 -3.5 C 9.09375 -3.144531 9.171875 -2.753906 9.328125 -2.328125 C 9.484375 -1.898438 9.816406 -1.515625 10.328125 -1.171875 C 10.847656 -0.835938 11.421875 -0.671875 12.046875 -0.671875 L 12.59375 -0.671875 L 12.59375 0 L -1.828125 0 L -1.828125 -0.671875 L -1.21875 -0.671875 C -0.1875 -0.671875 0.832031 -0.972656 1.84375 -1.578125 C 2.851562 -2.179688 3.695312 -3.09375 4.375 -4.3125 L 19.390625 -38.59375 C 17.640625 -42.539062 15.773438 -45.253906 13.796875 -46.734375 C 12.140625 -47.992188 10.554688 -48.625 9.046875 -48.625 C 7.546875 -48.625 6.144531 -48.398438 4.84375 -47.953125 L 4.703125 -48.625 C 7.941406 -50.28125 11.039062 -51.109375 14 -51.109375 C 17.6875 -51.109375 20.988281 -49.671875 23.90625 -46.796875 C 26.78125 -43.972656 29.316406 -39.890625 31.515625 -34.546875 L 41.28125 -10.4375 C 44.957031 -1.320312 48.726562 4.9375 52.59375 8.34375 C 54.164062 9.738281 55.78125 10.703125 57.4375 11.234375 C 59.101562 11.773438 60.503906 12.046875 61.640625 12.046875 C 62.785156 12.046875 63.898438 11.914062 64.984375 11.65625 Z M 14.140625 -16.296875 L 27.875 -16.296875 L 23.15625 -28.75 C 22.9375 -29.382812 22.625 -30.25 22.21875 -31.34375 C 21.8125 -32.445312 21.539062 -33.222656 21.40625 -33.671875 Z M 14.140625 -16.296875 "/></g></g></g><g fill="#000000" fill-opacity="1"><g transform="translate(305.272658, 168.370559)"><g><path d="M -1.6875 -31.453125 C -3.882812 -33.554688 -4.984375 -35.820312 -4.984375 -38.25 C -4.984375 -40.132812 -4.378906 -41.773438 -3.171875 -43.171875 C -0.878906 -45.859375 2.328125 -47.203125 6.453125 -47.203125 L 38.171875 -47.203125 C 40.148438 -47.253906 41.878906 -47.425781 43.359375 -47.71875 C 44.847656 -48.007812 45.789062 -48.242188 46.1875 -48.421875 L 46.1875 -36.703125 L 45.515625 -36.703125 L 45.515625 -37.515625 C 45.515625 -39.535156 44.910156 -41.171875 43.703125 -42.421875 C 42.492188 -43.679688 40.851562 -44.332031 38.78125 -44.375 L 29.6875 -44.375 L 29.6875 -4.84375 C 29.78125 -3.226562 30.523438 -2.019531 31.921875 -1.21875 C 32.546875 -0.851562 33.238281 -0.671875 34 -0.671875 L 34.875 -0.671875 L 34.875 0 L 14.40625 0 L 14.40625 -0.671875 L 15.28125 -0.671875 C 16.445312 -0.671875 17.445312 -1.070312 18.28125 -1.875 C 19.113281 -2.6875 19.550781 -3.65625 19.59375 -4.78125 L 19.59375 -44.375 L 6.453125 -44.375 C 4.617188 -44.375 3.003906 -44.039062 1.609375 -43.375 C -1.210938 -42.019531 -2.625 -39.90625 -2.625 -37.03125 C -2.625 -35.332031 -2.085938 -33.582031 -1.015625 -31.78125 Z M -1.6875 -31.453125 "/></g></g></g></svg>